<svg viewBox="0 0 148 32" xmlns="http://www.w3.org/2000/svg"><g fill="#FFF" fill-rule="evenodd"><path d="M22.082 22.794c.01-.028 1.1-2.84 1.39-3.618.034-.095.06-.127.138-.133l.005-.13v.13c.057 0 .104.068.117.093l.786 1.53c.097.2.052.377-.13.526 0 0-1.56 1.232-2.21 1.736-.05.04-.08.046-.09.046-.006 0-.017 0-.035-.016 0 0-.02-.035.03-.164zm.67-11.353l-8.373.704c-.206 0-.373-.046-.556-.15l-2.838-1.742c-.145-.094-.126-.172-.12-.205.022-.088.13-.096.146-.096h.004l7.598-.524c.374-.032.7.095.994.236.858.41 3.194 1.567 3.22 1.58.115.054.15.098.152.107-.023.065-.08.08-.227.09zm-10.06 2.118l-1.514 2.493-.02.032c-.037.058-.105.166-.193.166h-.002c-.07-.01-.093-.048-.12-.134l-1.14-4.597c-.044-.176-.02-.258-.007-.268.083-.064.178-.016.272.042l2.584 1.586c.21.127.267.423.14.68zm-3.04 8.096c-.046-.142.048-.415.166-.61.173-.29 1.742-2.88 2.937-4.857.756-1.247 1.362-2.25 1.375-2.272.146-.247.3-.35.546-.373l8.85-.743c.062-.006.127-.01.193-.01.184 0 .294.04.355.13.164.243.116.424.048.602l-4.047 10.544-.006.016c-.078.174-.367.417-.62.368-.05-.01-.176-.042-.23-.058-.068-.017-8.94-2.32-9.07-2.358-.292-.084-.436-.194-.497-.38zm14.63-4.594l1.545-4.04c.404-1.014.092-1.855-.855-2.306L20.296 8.42l-.03-.015c-.51-.244-.94-.45-1.73-.397l-8.834.61c-.532.053-1.058.337-1.34.726-.323.447-.375 1.148-.26 1.61l1.8 7.212c-.174.27-.646 1.058-1.066 1.76l-.525.872c-.33.547-.397 1.036-.198 1.497.2.462.688.847 1.277 1.004 2.082.554 7.68 2.003 9.988 2.6l.132.034c.15.04.282.066.446.066.386 0 .77-.14 1.107-.405l4.246-3.33c.675-.534.88-1.43.5-2.18l-1.527-3.025z"/><path d="M31.18 20.756l-7.364 9.112c-.328.416-.85.665-1.395.665h-11.8c-.547 0-1.068-.25-1.398-.668l-7.36-9.107c-.34-.43-.47-.987-.357-1.523l2.63-11.37c.13-.544.483-.983.967-1.206L15.73 1.6c.256-.1.54-.153.8-.153.263 0 .527.057.763.166l10.64 5.045c.5.248.863.698.972 1.206l2.63 11.373c.13.537.002 1.09-.354 1.52m1.733-1.814L30.283 7.57c-.225-.965-.87-1.762-1.766-2.186L17.913.314C17.475.11 16.997 0 16.53 0c-.464 0-.935.105-1.404.316L4.482 5.383c-.898.425-1.542 1.222-1.768 2.19l-2.63 11.37c-.225.966.006 1.97.635 2.752l7.36 9.108C8.69 31.563 9.606 32 10.6 32H22.4c.992 0 1.91-.436 2.516-1.196l7.36-9.107c.635-.767.867-1.77.637-2.754M43 8.78V23h9.53v-2.353h-6.6v-3.81h5.625v-2.294H45.93v-3.39h6.582V8.782H43zM54.21 23h2.832V8h-2.83v15zM65.09 20.012c-.072.13-.167.258-.288.38-.12.124-.262.233-.425.328-.162.095-.347.17-.552.23-.205.058-.428.087-.67.087-.428 0-.767-.113-1.014-.34-.247-.23-.37-.52-.37-.87 0-.235.042-.452.127-.65.084-.198.214-.37.39-.518.176-.147.4-.26.674-.342.275-.08.597-.122.968-.122h1.162v1.816zm2.94 1.87c-.033-.192-.06-.407-.08-.644-.018-.238-.028-.507-.028-.806V15.96c0-.62-.106-1.16-.317-1.627-.212-.466-.507-.852-.884-1.162-.377-.308-.826-.54-1.347-.697-.52-.156-1.087-.234-1.7-.234-.683 0-1.3.088-1.854.267-.555.18-1.027.42-1.417.728-.39.306-.692.664-.904 1.074-.212.41-.318.843-.318 1.298h2.822c0-.397.135-.71.405-.938.27-.228.642-.342 1.118-.342.54 0 .936.147 1.186.44.25.293.376.683.376 1.172v.605h-1.26c-.807 0-1.515.078-2.124.235-.61.156-1.118.384-1.528.683-.41.3-.718.664-.923 1.094-.205.43-.308.922-.308 1.475 0 .462.092.886.274 1.274.183.388.435.722.758 1 .322.28.703.5 1.142.655.44.157.913.236 1.42.236.626 0 1.155-.112 1.588-.332.433-.22.793-.493 1.08-.81.058.376.152.692.282.946h2.852v-.166c-.072-.136-.133-.28-.186-.434-.052-.154-.094-.325-.127-.518zM77.42 17.692c-.356-.257-.777-.468-1.266-.63-.488-.162-1.02-.3-1.59-.41-.366-.072-.674-.15-.924-.234-.25-.084-.453-.178-.606-.28-.153-.1-.263-.21-.332-.33-.068-.12-.102-.26-.102-.416 0-.332.13-.605.39-.82.26-.215.63-.322 1.104-.322.553 0 .96.13 1.22.395.26.264.39.597.39 1h2.823c0-.493-.102-.95-.307-1.366-.205-.417-.498-.777-.88-1.08-.38-.303-.844-.538-1.39-.708-.548-.17-1.163-.254-1.846-.254-.658 0-1.25.088-1.773.264-.523.175-.966.415-1.327.717-.36.302-.638.653-.83 1.05-.192.396-.288.816-.288 1.26 0 .454.094.854.283 1.2.19.346.45.65.786.908.336.26.733.48 1.192.655.46.175.958.322 1.5.44.44.09.803.185 1.083.282.278.098.5.2.663.308.162.107.273.223.332.347.058.123.088.26.088.41 0 .332-.14.6-.415.805-.277.205-.686.308-1.226.308-.254 0-.497-.03-.728-.088-.23-.06-.434-.15-.61-.273-.176-.123-.317-.286-.425-.484-.108-.198-.168-.434-.18-.708h-2.677c0 .43.097.856.293 1.28.195.423.487.804.874 1.142.387.338.864.61 1.43.82.567.21 1.22.313 1.963.313.678 0 1.29-.082 1.836-.244.546-.16 1.013-.386 1.4-.673.388-.287.685-.627.894-1.02.21-.394.313-.826.313-1.294 0-.522-.102-.965-.303-1.334-.2-.37-.48-.68-.835-.938M84.836 20.87c-.182 0-.34-.014-.474-.043-.133-.03-.245-.085-.337-.166-.09-.08-.16-.193-.205-.336-.045-.142-.068-.326-.068-.547v-5.273h1.807v-2.07H83.75V9.835H80.93v2.597h-1.543v2.07h1.543v5.577c0 .56.072 1.04.215 1.436.142.396.346.718.61.966s.58.428.952.542c.37.115.787.17 1.25.17.352 0 .666-.023.942-.072.276-.05.532-.108.766-.18V20.8c-.103.02-.226.036-.366.05-.14.013-.294.02-.464.02M87.277 23h2.832V12.434h-2.833V23zM89.846 8.654c-.137-.13-.303-.23-.498-.303-.195-.07-.414-.106-.654-.106-.49 0-.874.137-1.158.41-.283.273-.424.62-.424 1.045 0 .214.037.41.112.59.075.178.18.333.317.464.138.13.304.23.5.302.195.073.413.108.654.108.24 0 .46-.035.654-.108.195-.072.36-.172.498-.302.137-.13.242-.286.317-.464.076-.18.113-.376.113-.59 0-.21-.037-.403-.113-.582-.075-.18-.18-.333-.317-.464M94.894 16.438c.053-.37.15-.698.298-.98.147-.286.35-.51.61-.68.26-.17.596-.255 1.006-.255.287 0 .54.05.762.146.22.098.407.23.556.396.15.165.266.36.347.585.082.226.127.466.133.72h2.645c-.004-.632-.115-1.204-.33-1.715-.215-.51-.514-.946-.898-1.303-.386-.357-.846-.633-1.383-.825-.537-.193-1.133-.288-1.782-.288-.816-.002-1.526.136-2.135.413-.608.277-1.114.655-1.517 1.138-.406.484-.707 1.05-.91 1.7-.2.65-.302 1.35-.302 2.1v.273c0 .748.102 1.448.302 2.096.203.645.504 1.21.91 1.688.403.477.912.855 1.522 1.133.612.276 1.33.415 2.148.415.612 0 1.184-.093 1.715-.282.53-.19.992-.454 1.382-.797.392-.34.7-.748.928-1.22.228-.473.346-.988.35-1.55l-2.644.002c-.006.24-.054.457-.142.65-.088.19-.21.355-.367.492-.155.137-.34.243-.556.318-.214.075-.453.11-.712.11-.424.002-.766-.08-1.026-.247-.26-.166-.464-.39-.61-.67-.146-.277-.244-.604-.297-.974-.053-.372-.078-.76-.078-1.163v-.273c0-.396.025-.782.078-1.152M114.494 8.78h-3.604l-3.623 4.68-1.29 1.766V8.78h-2.928V23h2.928v-4.063l1.524-1.64L111.154 23h3.486l-5.195-7.9 5.05-6.32zM121.79 19.914c-.17.312-.415.557-.733.732-.32.176-.733.264-1.24.264-.22 0-.424-.03-.606-.088-.18-.058-.34-.15-.473-.278-.134-.127-.237-.294-.312-.503-.075-.208-.113-.458-.113-.75v-6.856h-2.822v6.835c0 .697.084 1.293.254 1.79.17.5.408.907.718 1.222.31.316.68.547 1.108.694.43.146.905.22 1.426.22.645 0 1.205-.112 1.68-.333.474-.22.88-.533 1.21-.937l.08 1.074h2.655V12.434h-2.83v7.48zM133.45 17.814c0 .45-.03.864-.09 1.245-.057.38-.163.707-.316.98-.154.274-.36.49-.616.645-.256.156-.584.234-.98.234-.49 0-.884-.098-1.183-.293-.298-.196-.53-.47-.693-.82v-4.17c.162-.352.395-.624.693-.816.3-.192.688-.287 1.163-.287.404 0 .736.082.996.244.26.162.466.385.62.664.153.28.26.608.317.982.06.374.09.77.09 1.187v.204zm1.796-4.062c-.345-.475-.776-.846-1.294-1.114-.518-.267-1.12-.4-1.812-.4-.56 0-1.05.1-1.47.298-.42.198-.785.48-1.098.844V8h-2.822v15h2.54l.126-1.124c.326.417.71.74 1.157.972.446.232.976.347 1.587.347.69 0 1.292-.132 1.807-.396.514-.264.942-.634 1.284-1.11.343-.474.598-1.04.767-1.698.17-.658.254-1.383.254-2.178v-.205c0-.782-.084-1.5-.253-2.16-.17-.657-.426-1.224-.77-1.698zM144.445 16.71h-3.926c.045-.325.12-.62.224-.888.104-.267.24-.496.405-.688.165-.193.363-.342.595-.45.23-.107.5-.16.805-.16.326 0 .608.048.845.146.238.098.433.234.586.41.154.176.268.385.343.625.075.24.115.502.122.78v.226zm2.773.724c0-.782-.1-1.49-.297-2.13-.198-.638-.495-1.183-.888-1.635-.394-.453-.88-.805-1.46-1.056-.58-.25-1.25-.376-2.012-.376-.755 0-1.437.135-2.046.406-.608.27-1.126.645-1.552 1.128-.427.482-.755 1.056-.987 1.723-.23.667-.346 1.402-.346 2.202v.38c0 .71.118 1.376.355 1.998.237.622.583 1.163 1.035 1.626.452.464 1.003.827 1.65 1.095.648.268 1.382.4 2.203.4.514 0 .988-.053 1.42-.16.433-.108.823-.252 1.168-.43.345-.18.645-.382.9-.61.253-.23.465-.464.634-.704l-1.387-1.552c-.312.405-.686.702-1.123.894-.436.192-.91.288-1.426.288-.364 0-.693-.055-.986-.166-.293-.11-.55-.266-.767-.464-.217-.198-.397-.438-.537-.718-.14-.28-.232-.59-.278-.937h6.728v-1.2z"/></g></svg>