<?xml version="1.0" encoding="UTF-8" standalone="no"?>
<svg width="20px" height="20px" viewBox="0 0 20 20" version="1.1" xmlns="http://www.w3.org/2000/svg" xmlns:xlink="http://www.w3.org/1999/xlink">
    <defs></defs>
    <g stroke="none" stroke-width="1" fill="none" fill-rule="evenodd">
        <g>
            <g>
                <path d="M6.8427957,0.590736842 C4.36505376,1.42115789 2.25526882,3.23505263 1.08537634,5.52778947 C0.678172043,6.31778947 0.380860215,7.16105263 0.202258065,8.02831579 C-0.247096774,10.1892632 0.0660215054,12.4932632 1.08419355,14.4614737 C1.74591398,15.7462105 2.69462366,16.8882105 3.84537634,17.7835789 C4.93107527,18.6310526 6.19655914,19.2571579 7.53817204,19.6064211 C9.2311828,20.0509474 11.0333333,20.0408421 12.7374194,19.6612632 C14.2776344,19.3142105 15.7348387,18.5937895 16.8982796,17.5422105 C18.127957,16.4358947 19.0052688,14.9783158 19.4696774,13.4118947 C19.9762366,11.7032632 20.0460215,9.87926316 19.7284946,8.13021053 C16.5406452,8.12863158 13.3526882,8.12936842 10.1648387,8.12978947 C10.1652688,9.42421053 10.1632258,10.7185263 10.1655914,12.0126316 C12.011828,12.0122105 13.8580645,12.0117895 15.703871,12.0126316 C15.4898925,13.2529474 14.7368817,14.3872632 13.6690323,15.0855789 C12.9978495,15.5273684 12.2265591,15.8142105 11.4315054,15.9505263 C10.6312903,16.0842105 9.8044086,16.1013684 9.00612903,15.9431579 C8.1944086,15.7846316 7.41956989,15.4535789 6.74354839,14.9868421 C5.66268817,14.2434737 4.83774194,13.1557895 4.41419355,11.9317895 C3.9811828,10.6867368 3.97795699,9.30136842 4.41623656,8.05747368 C4.72032258,7.18084211 5.22634409,6.37105263 5.89129032,5.712 C6.71139785,4.89010526 7.77752688,4.30252632 8.92634409,4.06157895 C9.91,3.856 10.9472043,3.89526316 11.9102151,4.18052632 C12.7287097,4.42378947 13.4833333,4.86284211 14.1013978,5.44073684 C14.726129,4.83263158 15.3477419,4.22094737 15.9713978,3.61157895 C16.2984946,3.28368421 16.6422581,2.97010526 16.9590323,2.63315789 C16.011828,1.77515789 14.9016129,1.08536842 13.6884946,0.649368421 C11.5045161,-0.137473684 9.04150538,-0.154210526 6.8427957,0.590736842" fill="#FFFFFF"></path>
                <path d="M6.8427957,0.590736842 C9.04150538,-0.154210526 11.5045161,-0.137473684 13.6884946,0.649368421 C14.9016129,1.08536842 16.011828,1.77515789 16.9590323,2.63315789 C16.6422581,2.97010526 16.2984946,3.28368421 15.9713978,3.61157895 C15.3477419,4.22094737 14.726129,4.83263158 14.1013978,5.44073684 C13.4833333,4.86284211 12.7287097,4.42378947 11.9102151,4.18052632 C10.9472043,3.89526316 9.91,3.856 8.92634409,4.06157895 C7.77752688,4.30252632 6.71139785,4.89010526 5.89129032,5.712 C5.22634409,6.37105263 4.72032258,7.18084211 4.41623656,8.05747368 C3.30591398,7.21421053 2.19612903,6.37063158 1.08537634,5.52778947 C2.25526882,3.23505263 4.36505376,1.42115789 6.8427957,0.590736842" fill="#EA4335"></path>
                <path d="M0.202258065,8.02831579 C0.380860215,7.16105263 0.678172043,6.31778947 1.08537634,5.52778947 C2.19612903,6.37063158 3.30591398,7.21421053 4.41623656,8.05747368 C3.97795699,9.30136842 3.9811828,10.6867368 4.41419355,11.9317895 C3.3044086,12.7750526 2.19526882,13.6193684 1.08419355,14.4614737 C0.0660215054,12.4932632 -0.247096774,10.1892632 0.202258065,8.02831579" fill="#FBBC05"></path>
                <path d="M10.1648387,8.12978947 C13.3526882,8.12936842 16.5406452,8.12863158 19.7284946,8.13021053 C20.0460215,9.87926316 19.9762366,11.7032632 19.4696774,13.4118947 C19.0052688,14.9783158 18.127957,16.4358947 16.8982796,17.5422105 C15.8233333,16.7218947 14.7439785,15.9063158 13.6690323,15.0855789 C14.7368817,14.3872632 15.4898925,13.2529474 15.703871,12.0126316 C13.8580645,12.0117895 12.011828,12.0122105 10.1655914,12.0126316 C10.1632258,10.7185263 10.1652688,9.42421053 10.1648387,8.12978947" fill="#4285F4"></path>
                <path d="M1.08419355,14.4614737 C2.19526882,13.6193684 3.3044086,12.7750526 4.41419355,11.9317895 C4.83774194,13.1557895 5.66268817,14.2434737 6.74354839,14.9868421 C7.41956989,15.4535789 8.1944086,15.7846316 9.00612903,15.9431579 C9.8044086,16.1013684 10.6312903,16.0842105 11.4315054,15.9505263 C12.2265591,15.8142105 12.9978495,15.5273684 13.6690323,15.0855789 C14.7439785,15.9063158 15.8233333,16.7218947 16.8982796,17.5422105 C15.7348387,18.5937895 14.2776344,19.3142105 12.7374194,19.6612632 C11.0333333,20.0408421 9.2311828,20.0509474 7.53817204,19.6064211 C6.19655914,19.2571579 4.93107527,18.6310526 3.84537634,17.7835789 C2.69462366,16.8882105 1.74591398,15.7462105 1.08419355,14.4614737" fill="#34A853"></path>
            </g>
        </g>
    </g>
</svg>