<?xml version="1.0" encoding="UTF-8" standalone="no"?>
<svg viewBox="0 0 18 18" version="1.1" xmlns="http://www.w3.org/2000/svg" xmlns:xlink="http://www.w3.org/1999/xlink">
    <defs></defs>
    <g stroke="none" stroke-width="1" fill-rule="evenodd">
    	<path d="M12,9 C13.7,9 15,7.7 15,6 C15,4.3 13.7,3 12,3 C11.7,3 11.4,3.1 11.1,3.1 C11.7,4 12,4.9 12,6 C12,7.1 11.7,8 11.1,8.9 C11.4,8.9 11.7,9 12,9 L12,9 Z M7,9 C8.7,9 10,7.7 10,6 C10,4.3 8.7,3 7,3 C5.3,3 4,4.3 4,6 C4,7.7 5.3,9 7,9 L7,9 Z M13.6,11.2 C14.4,11.9 15,12.9 15,14 L15,16 L18,16 L18,14 C18,12.5 15.6,11.5 13.6,11.2 L13.6,11.2 Z M7,11 C5,11 1,12 1,14 L1,16 L13,16 L13,14 C13,12 9,11 7,11 L7,11 Z"></path>
    </g>
</svg>