<?xml version="1.0" encoding="UTF-8" standalone="no"?>
<svg width="18px" height="18px" viewBox="0 0 18 18" version="1.1" xmlns="http://www.w3.org/2000/svg" xmlns:xlink="http://www.w3.org/1999/xlink">
    <defs></defs>
    <g stroke="none" stroke-width="1" fill-rule="evenodd">
        <g transform="translate(1.000000, 2.000000)">
            <path d="M13.05,8.25 C13.05,8.025 13.125,7.8 13.125,7.5 C13.125,7.2 13.125,6.975 13.05,6.75 L14.625,5.475 C14.775,5.325 14.775,5.175 14.7,5.025 L13.2,2.4 C13.125,2.325 12.975,2.25 12.75,2.325 L10.875,3.075 C10.5,2.775 10.05,2.55 9.6,2.325 L9.3,0.375 C9.375,0.15 9.15,0 9,0 L6,0 C5.85,0 5.625,0.15 5.625,0.3 L5.325,2.325 C4.875,2.475 4.5,2.775 4.05,3.075 L2.25,2.325 C2.025,2.25 1.875,2.325 1.725,2.475 L0.225,5.1 C0.15,5.175 0.225,5.4 0.375,5.55 L1.95,6.75 C1.95,6.975 1.875,7.2 1.875,7.5 C1.875,7.8 1.875,8.025 1.95,8.25 L0.375,9.525 C0.225,9.675 0.225,9.825 0.3,9.975 L1.8,12.6 C1.875,12.675 2.025,12.75 2.25,12.675 L4.125,11.925 C4.5,12.225 4.95,12.45 5.4,12.675 L5.7,14.625 C5.7,14.775 5.85,14.925 6.075,14.925 L9.075,14.925 C9.225,14.925 9.45,14.775 9.45,14.625 L9.75,12.675 C10.2,12.45 10.65,12.225 11.025,11.925 L12.9,12.675 C13.05,12.75 13.275,12.675 13.35,12.525 L14.85,9.9 C14.925,9.75 14.925,9.525 14.775,9.45 L13.05,8.25 L13.05,8.25 Z M7.5,10.125 C6.075,10.125 4.875,8.925 4.875,7.5 C4.875,6.075 6.075,4.875 7.5,4.875 C8.925,4.875 10.125,6.075 10.125,7.5 C10.125,8.925 8.925,10.125 7.5,10.125 L7.5,10.125 Z"></path>
        </g>
    </g>
</svg>