<?xml version="1.0" encoding="UTF-8" standalone="no"?>
<svg viewBox="0 0 18 18" version="1.1" xmlns="http://www.w3.org/2000/svg" xmlns:xlink="http://www.w3.org/1999/xlink">
    <defs></defs>
    <g stroke="none" stroke-width="1" fill-rule="evenodd">
        <g>
            <path fill="#bdbdbd" d="M13.997,2 L3.992,2 L3.992,2.001 C2.885,2.007 2,2.894 2,4 L2,14 C2,15.103 2.88,15.986 3.982,15.998 L3.982,16 L13.997,16 C15.108,16 16,15.11 16,14 L16,4 C16,2.89 15.108,2 13.997,2 L13.997,2 Z M12.989,10 L9.989,10 L9.989,13 L7.989,13 L7.989,10 L4.989,10 L4.989,8 L7.989,8 L7.989,5 L9.989,5 L9.989,8 L12.989,8 L12.989,10 L12.989,10 Z"></path>
        </g>
    </g>
</svg>
