<?xml version="1.0" encoding="UTF-8" standalone="no"?>
<svg viewBox="0 0 18 18" version="1.1" xmlns="http://www.w3.org/2000/svg" xmlns:xlink="http://www.w3.org/1999/xlink">
    <defs></defs>
    <g stroke="none" stroke-width="1" fill-rule="evenodd">
        <path d="M11.998,10 L12,3.003 C12,2.453 11.55,2.007 11.01,2.007 L6.99,2.007 C6.444,2.007 6,2.454 6,3.007 L6,8.993 C6,9.55 6.002,10 6.002,10 L7.002,10 L8.002,9 L9.998,9 L10.998,10 L11.998,10 L11.998,10 Z M9,6 C9.552,6 10,5.552 10,5 C10,4.448 9.552,4 9,4 C8.448,4 8,4.448 8,5 C8,5.552 8.448,6 9,6 L9,6 Z"></path>
        <path d="M5,10 L5,8.007 L2.99,8.007 C2.444,8.007 2,8.454 2,9.007 L2,14.993 C2,15.55 2.002,16 2.002,16 L3.002,16 L4.002,15 L5.998,15 L6.998,16 L7.998,16 L7.998,11 L6,11 C6,11.552 5.552,12 5,12 C4.448,12 4,11.552 4,11 C4,10.448 4.448,10 5,10 L5,10 Z M12,11 L10,11 L10,14.993 C10,15.55 10.003,16 10.003,16 L11.003,16 L12.003,15 L13.998,15 L14.998,16 L15.998,16 L16,9.003 C16,8.453 15.55,8.007 15.01,8.007 L13,8.007 L13,10 C13.552,10 14,10.448 14,11 C14,11.552 13.552,12 13,12 C12.448,12 12,11.552 12,11 L12,11 Z"></path>
    </g>
</svg>