<?xml version="1.0" encoding="UTF-8" standalone="no"?>
<svg viewBox="0 0 18 18" version="1.1" xmlns="http://www.w3.org/2000/svg" xmlns:xlink="http://www.w3.org/1999/xlink">
    <defs></defs>
    <g stroke="none" stroke-width="1" fill-rule="evenodd">
            <path d="M14.8544229,10.25 C14.8544229,10.025 14.9294229,9.8 14.9294229,9.5 C14.9294229,9.2 14.9294229,8.975 14.8544229,8.75 L16.4294229,7.475 C16.5794229,7.325 16.5794229,7.175 16.5044229,7.025 L15.0044229,4.4 C14.9294229,4.325 14.7794229,4.25 14.5544229,4.325 L12.6794229,5.075 C12.3044229,4.775 11.8544229,4.55 11.4044229,4.325 L11.1044229,2.375 C11.1794229,2.15 10.9544229,2 10.8044229,2 L7.80442286,2 C7.65442286,2 7.42942286,2.15 7.42942286,2.3 L7.12942286,4.325 C6.67942286,4.475 6.30442286,4.775 5.85442286,5.075 L4.05442286,4.325 C3.82942286,4.25 3.67942286,4.325 3.52942286,4.475 L2.02942286,7.1 C1.95442286,7.175 2.02942286,7.4 2.17942286,7.55 L3.75442286,8.75 C3.75442286,8.975 3.67942286,9.2 3.67942286,9.5 C3.67942286,9.8 3.67942286,10.025 3.75442286,10.25 L2.17942286,11.525 C2.02942286,11.675 2.02942286,11.825 2.10442286,11.975 L3.60442286,14.6 C3.67942286,14.675 3.82942286,14.75 4.05442286,14.675 L5.92942286,13.925 C6.30442286,14.225 6.75442286,14.45 7.20442286,14.675 L7.50442286,16.625 C7.50442286,16.775 7.65442286,16.925 7.87942286,16.925 L10.8794229,16.925 C11.0294229,16.925 11.2544229,16.775 11.2544229,16.625 L11.5544229,14.675 C12.0044229,14.45 12.4544229,14.225 12.8294229,13.925 L14.7044229,14.675 C14.8544229,14.75 15.0794229,14.675 15.1544229,14.525 L16.6544229,11.9 C16.7294229,11.75 16.7294229,11.525 16.5794229,11.45 L14.8544229,10.25 L14.8544229,10.25 Z M9.30442286,12.125 C7.87942286,12.125 6.67942286,10.925 6.67942286,9.5 C6.67942286,8.075 7.87942286,6.875 9.30442286,6.875 C10.7294229,6.875 11.9294229,8.075 11.9294229,9.5 C11.9294229,10.925 10.7294229,12.125 9.30442286,12.125 L9.30442286,12.125 Z"></path>
    </g>
</svg>