<?xml version="1.0" encoding="UTF-8" standalone="no"?>
<svg width="18px" height="18px" viewBox="0 0 18 18" version="1.1" xmlns="http://www.w3.org/2000/svg" xmlns:xlink="http://www.w3.org/1999/xlink">
    <defs></defs>
    <g stroke="none" stroke-width="1" fill-rule="evenodd">
        <g transform="translate(2.000000, 2.000000)">
            <path d="M9.998,8 L10,1.003 C10,0.453 9.55,0.007 9.01,0.007 L4.99,0.007 C4.444,0.007 4,0.454 4,1.007 L4,6.993 C4,7.55 4.002,8 4.002,8 L5.002,8 L6.002,7 L7.998,7 L8.998,8 L9.998,8 L9.998,8 Z M7,4 C7.552,4 8,3.552 8,3 C8,2.448 7.552,2 7,2 C6.448,2 6,2.448 6,3 C6,3.552 6.448,4 7,4 L7,4 Z"></path>
            <path d="M3,8 L3,6.007 L0.99,6.007 C0.444,6.007 0,6.454 0,7.007 L0,12.993 C0,13.55 0.002,14 0.002,14 L1.002,14 L2.002,13 L3.998,13 L4.998,14 L5.998,14 L5.998,9 L4,9 C4,9.552 3.552,10 3,10 C2.448,10 2,9.552 2,9 C2,8.448 2.448,8 3,8 L3,8 Z M10,9 L8,9 L8,12.993 C8,13.55 8.003,14 8.003,14 L9.003,14 L10.003,13 L11.998,13 L12.998,14 L13.998,14 L14,7.003 C14,6.453 13.55,6.007 13.01,6.007 L11,6.007 L11,8 C11.552,8 12,8.448 12,9 C12,9.552 11.552,10 11,10 C10.448,10 10,9.552 10,9 L10,9 Z"></path>
        </g>
    </g>
</svg>