<?xml version="1.0" encoding="UTF-8" standalone="no"?>
<svg viewBox="0 0 18 18" version="1.1" xmlns="http://www.w3.org/2000/svg" xmlns:xlink="http://www.w3.org/1999/xlink">
    <defs></defs>
    <g stroke="none" stroke-width="1" fill-rule="evenodd">
        <g transform="translate(1.000000, 1.000000)">
            <path d="M8,0 C3.6,0 0,3.6 0,8 C0,12.4 3.6,16 8,16 C12.4,16 16,12.4 16,8 C16,3.6 12.4,0 8,0 L8,0 Z M7.2,14.32 C4.08,13.92 1.6,11.2 1.6,8 C1.6,7.52 1.68,7.04 1.76,6.56 L5.6,10.4 L5.6,11.2 C5.6,12.08 6.32,12.8 7.2,12.8 L7.2,14.32 L7.2,14.32 Z M12.72,12.32 C12.48,11.68 11.92,11.2 11.2,11.2 L10.4,11.2 L10.4,8.8 C10.4,8.32 10.08,8 9.6,8 L4.8,8 L4.8,6.4 L6.4,6.4 C6.88,6.4 7.2,6.08 7.2,5.6 L7.2,4 L8.8,4 C9.68,4 10.4,3.28 10.4,2.4 L10.4,2.08 C12.72,3.04 14.4,5.36 14.4,8 C14.4,9.68 13.76,11.2 12.72,12.32 L12.72,12.32 Z"></path>
        </g>
    </g>
</svg>