<?xml version="1.0" encoding="UTF-8" standalone="no"?>
<svg viewBox="0 0 18 18" version="1.1" xmlns="http://www.w3.org/2000/svg" xmlns:xlink="http://www.w3.org/1999/xlink">
    <defs></defs>
    <g stroke="none" stroke-width="1" fill-rule="evenodd">
        <path d="M9,1 C4.6,1 1,4.6 1,9 C1,13.4 4.6,17 9,17 C13.4,17 17,13.4 17,9 C17,4.6 13.4,1 9,1 L9,1 Z M8.2,15.32 C5.08,14.92 2.6,12.2 2.6,9 C2.6,8.52 2.68,8.04 2.76,7.56 L6.6,11.4 L6.6,12.2 C6.6,13.08 7.32,13.8 8.2,13.8 L8.2,15.32 L8.2,15.32 Z M13.72,13.32 C13.48,12.68 12.92,12.2 12.2,12.2 L11.4,12.2 L11.4,9.8 C11.4,9.32 11.08,9 10.6,9 L5.8,9 L5.8,7.4 L7.4,7.4 C7.88,7.4 8.2,7.08 8.2,6.6 L8.2,5 L9.8,5 C10.68,5 11.4,4.28 11.4,3.4 L11.4,3.08 C13.72,4.04 15.4,6.36 15.4,9 C15.4,10.68 14.76,12.2 13.72,13.32 L13.72,13.32 Z"></path>
    </g>
</svg>