<?xml version="1.0" encoding="UTF-8" standalone="no"?>
<svg viewBox="0 0 12 14" version="1.1" xmlns="http://www.w3.org/2000/svg">
    <g transform="translate(-120.000000, -316.000000)">
        <g transform="translate(100.000000, 50.000000)">
            <g transform="translate(0.000000, 173.000000)">
                <g transform="translate(17.000000, 2.000000)">
                    <path d="M13.998,105 C14.544,105 15,104.55 15,103.993 L15,93.007 C15,92 13.998,91 12.998,91 L5.002,91 C4.002,91 3,92 3,93.007 L3,103.993 C3,104.55 3.45,105 4.002,105 L5.5,105 L6,104 L12,104 L12.5,105 L13.998,105 L13.998,105 Z M5,93 L13,93 L13,102 L5,102 L5,93 L5,93 Z M6,98.5 C6,98.224 6.228,98 6.49,98 L11.51,98 C11.78,98 12,98.232 12,98.5 C12,98.776 11.772,99 11.51,99 L6.49,99 C6.22,99 6,98.768 6,98.5 L6,98.5 Z M8,94 L10,94 L10,96 L8,96 L8,94 L8,94 Z M6,100.5 C6,100.224 6.228,100 6.49,100 L11.51,100 C11.78,100 12,100.232 12,100.5 C12,100.776 11.772,101 11.51,101 L6.49,101 C6.22,101 6,100.768 6,100.5 L6,100.5 Z"></path>
                </g>
            </g>
        </g>
    </g>
</svg>