<?xml version="1.0" encoding="UTF-8" standalone="no"?>
<svg viewBox="0 0 18 18" version="1.1" xmlns="http://www.w3.org/2000/svg" xmlns:xlink="http://www.w3.org/1999/xlink">
    <defs></defs>
    <g stroke="none" stroke-width="1" fill-rule="evenodd">
        <g>
            <path d="M13.998,16 C14.544,16 15,15.55 15,14.993 L15,4.007 C15,3 13.998,2 12.998,2 L5.002,2 C4.002,2 3,3 3,4.007 L3,14.993 C3,15.55 3.45,16 4.002,16 L5.5,16 L6,15 L12,15 L12.5,16 L13.998,16 L13.998,16 Z M5,4 L13,4 L13,13 L5,13 L5,4 L5,4 Z M6,9.5 C6,9.224 6.228,9 6.49,9 L11.51,9 C11.78,9 12,9.232 12,9.5 C12,9.776 11.772,10 11.51,10 L6.49,10 C6.22,10 6,9.768 6,9.5 L6,9.5 Z M8,5 L10,5 L10,7 L8,7 L8,5 L8,5 Z M6,11.5 C6,11.224 6.228,11 6.49,11 L11.51,11 C11.78,11 12,11.232 12,11.5 C12,11.776 11.772,12 11.51,12 L6.49,12 C6.22,12 6,11.768 6,11.5 L6,11.5 Z"></path>
        </g>
    </g>
</svg>