<?xml version="1.0" encoding="UTF-8" standalone="no"?>
<svg width="18px" height="18px" viewBox="0 0 18 18" version="1.1" xmlns="http://www.w3.org/2000/svg" xmlns:xlink="http://www.w3.org/1999/xlink">
    <defs></defs>
    <g stroke="none" stroke-width="1" fill-rule="evenodd">
        <g transform="translate(1.000000, 3.000000)">
            <path d="M11,6 C12.7,6 14,4.7 14,3 C14,1.3 12.7,0 11,0 C10.7,0 10.4,0.1 10.1,0.1 C10.7,1 11,1.9 11,3 C11,4.1 10.7,5 10.1,5.9 C10.4,5.9 10.7,6 11,6 L11,6 Z M6,6 C7.7,6 9,4.7 9,3 C9,1.3 7.7,0 6,0 C4.3,0 3,1.3 3,3 C3,4.7 4.3,6 6,6 L6,6 Z M12.6,8.2 C13.4,8.9 14,9.9 14,11 L14,13 L17,13 L17,11 C17,9.5 14.6,8.5 12.6,8.2 L12.6,8.2 Z M6,8 C4,8 0,9 0,11 L0,13 L12,13 L12,11 C12,9 8,8 6,8 L6,8 Z"></path>
        </g>
    </g>
</svg>