<?xml version="1.0" encoding="UTF-8" standalone="no"?>
<svg width="185px" height="41px" viewBox="0 0 185 41" version="1.1" xmlns="http://www.w3.org/2000/svg" xmlns:xlink="http://www.w3.org/1999/xlink">
    <defs></defs>
    <g stroke="none" stroke-width="1" fill="none" fill-rule="evenodd">
        <g>
            <g transform="translate(1.000000, 1.000000)">
                <path d="M19.8473011,0.0463945827 C19.494268,0.0642671602 19.1483704,0.152233692 18.8299006,0.305133602 L4.94673295,6.97167826 C4.2188384,7.32102992 3.69014452,7.98173907 3.5102983,8.76679173 L0.0852272727,23.7415355 C-0.0745602869,24.4385898 0.0554551277,25.1704293 0.445667614,25.7704063 C0.492500173,25.8430043 0.542868149,25.913275 0.596590909,25.9809663 L10.2059659,37.9882412 C10.7098272,38.6176263 11.473777,38.9840985 12.2816051,38.9839403 L27.6917614,38.9803715 C28.4992873,38.980963 29.2631832,38.6151733 29.7674006,37.9864568 L39.3732244,25.9773975 C39.8773553,25.347697 40.0662372,24.5233828 39.8863636,23.7379667 L36.4559659,8.76322291 C36.2761197,7.97817025 35.7474258,7.31746111 35.0195313,6.96810944 L21.1345881,0.305133602 C20.734001,0.112797643 20.2913642,0.0238295831 19.8473011,0.0463945827 L19.8473011,0.0463945827 Z" stroke="#FFFFFF" stroke-width="1.8"></path>
                <path d="M19.984867,5.1424966 C19.5259489,5.14254343 19.1538466,5.55795852 19.1539011,6.07038826 C19.1539017,6.07825278 19.1555034,6.08576785 19.1556739,6.09358555 C19.1549977,6.16321225 19.1516511,6.24709366 19.1539011,6.30771439 C19.1648455,6.6032693 19.2289523,6.82947444 19.2675375,7.10177552 C19.3374398,7.68458627 19.3960131,8.16770091 19.359867,8.61673709 C19.3247142,8.78606447 19.2006125,8.94092302 19.0899807,9.04856359 L19.0704494,9.40187618 C18.5717665,9.44339833 18.0697477,9.51943234 17.5683187,9.63384909 C15.4106705,10.1261844 13.5529733,11.2431313 12.1386312,12.7512082 C12.0468574,12.6882868 11.8863,12.5725311 11.8385574,12.5370793 C11.6901955,12.5572143 11.54025,12.6032189 11.3449494,12.4889003 C10.9730795,12.2373343 10.6343886,11.8900859 10.2245659,11.4717883 C10.036783,11.2716955 9.90079773,11.0811596 9.67769091,10.8882872 C9.627025,10.8444867 9.54970341,10.7852456 9.49303182,10.7401814 C9.31860682,10.6004227 9.11287841,10.5275361 8.91419659,10.5206994 C8.6587483,10.5119093 8.41283636,10.6122809 8.25190966,10.8151265 C7.96581818,11.1757412 8.0574142,11.7269186 8.4561,12.0463674 C8.46014545,12.049605 8.46445341,12.052122 8.46852898,12.0552894 C8.5233142,12.0999207 8.5904017,12.157108 8.64075909,12.1944732 C8.87751307,12.3701473 9.09378182,12.4600757 9.32967955,12.5995336 C9.82666818,12.9079825 10.2386778,13.1637408 10.565475,13.4721086 C10.6930898,13.6088182 10.7153943,13.8497131 10.7323784,13.9538985 L10.9987136,14.193009 C9.57295114,16.3493539 8.91309659,19.0128757 9.30304886,21.7267755 L8.9550375,21.8284867 C8.86331591,21.9475201 8.73370739,22.1348189 8.59814545,22.1907213 C8.17058125,22.3260628 7.68938182,22.3757624 7.10844375,22.4369695 C6.83569886,22.4597614 6.60036534,22.4461599 6.31121364,22.5012082 C6.24757273,22.5133239 6.1589,22.5365406 6.08926761,22.552956 C6.08684716,22.5534699 6.0845858,22.5541894 6.08216534,22.5547375 C6.07836989,22.5556226 6.07338352,22.5574727 6.06973636,22.5583063 C5.57995568,22.6772358 5.26531932,23.1296592 5.36661136,23.5754183 C5.46792727,24.021282 5.94633523,24.2924228 6.43905455,24.1856855 C6.44261136,24.184869 6.44777614,24.184732 6.45148352,24.183904 C6.45704602,24.1826249 6.46194318,24.1799126 6.46746364,24.1785536 C6.5361483,24.1634013 6.6222233,24.1465428 6.68230739,24.1303746 C6.96658807,24.0538804 7.17247443,23.9414867 7.42804602,23.8430851 C7.97787216,23.6449006 8.43325795,23.479339 8.87690966,23.4148274 C9.06220398,23.4002427 9.25742727,23.5297238 9.3545375,23.5843461 L9.71675341,23.5218918 C10.5502864,26.1190075 12.2971034,28.2181668 14.5090119,29.5353435 L14.3580886,29.8993626 C14.4124875,30.0407116 14.4724869,30.2319589 14.4319648,30.3715492 C14.2706761,30.7918813 13.9944097,31.2355431 13.6798216,31.7301642 C13.5275006,31.9586779 13.3716097,32.136016 13.234154,32.3975324 C13.2012619,32.4601088 13.159371,32.5562344 13.1276199,32.6223677 C12.9140494,33.0815947 13.0707085,33.6105123 13.480958,33.8089984 C13.8937847,34.0087309 14.4062119,33.7980727 14.627975,33.3379149 C14.6283159,33.337264 14.6294352,33.3367843 14.6297477,33.3361334 C14.629975,33.3356194 14.6295205,33.3348486 14.6297477,33.3343518 C14.6613347,33.269111 14.7060847,33.1833556 14.7327307,33.1220074 C14.8504653,32.8509477 14.8896403,32.6186584 14.9724324,32.3564967 C15.1922972,31.8014668 15.3130955,31.2190997 15.6157608,30.8562181 C15.6986403,30.7568492 15.8337614,30.7186332 15.9738528,30.6809386 L16.1620631,30.3383324 C18.0903722,31.082176 20.2488051,31.2817818 22.4049608,30.7897874 C22.8968341,30.6775513 23.3716903,30.5322932 23.830742,30.3579609 C23.8836386,30.4522535 23.9819426,30.6335133 24.0082989,30.6791541 C24.1506619,30.7257018 24.3060511,30.749739 24.4326597,30.9378932 C24.6591023,31.3266929 24.8139608,31.7866519 25.002617,32.3422215 C25.0854227,32.6043786 25.1263455,32.8366781 25.2440943,33.1077321 C25.2709318,33.1695126 25.315458,33.2564723 25.3470773,33.321861 C25.5683739,33.7835136 26.082425,33.9948919 26.4958699,33.7947288 C26.9060688,33.5961372 27.0629006,33.0672675 26.849208,32.6080981 C26.8174528,32.5419672 26.7737932,32.4458376 26.7408983,32.3832629 C26.603429,32.1217539 26.4475631,31.9461842 26.2952307,31.717679 C25.9806165,31.2230745 25.7196807,30.8121881 25.5583699,30.3918646 C25.4909205,30.1750766 25.5697494,30.0402513 25.6222903,29.8993683 C25.5908256,29.8631223 25.5234943,29.6583968 25.483796,29.5621153 C27.7825119,28.1980769 29.4780324,26.0206361 30.274279,23.5058379 C30.3818017,23.5228209 30.5686847,23.5560502 30.6293926,23.5682921 C30.7543665,23.4854557 30.8692756,23.3773737 31.0945915,23.3952047 C31.538246,23.4596928 31.9936188,23.6253064 32.5434551,23.8234623 C32.7990318,23.9218508 33.0049097,24.0360569 33.2891938,24.1125363 C33.3492784,24.128701 33.4353517,24.143782 33.5040375,24.1589309 C33.5095602,24.1602899 33.5144523,24.1630079 33.5200176,24.1642812 C33.5237278,24.1651149 33.5288898,24.1652462 33.5324466,24.1660628 C34.0251943,24.2726675 34.5036875,24.0016855 34.6048898,23.5557956 C34.7060682,23.1100102 34.3915773,22.6574817 33.9017648,22.5386836 C33.8305188,22.5224024 33.7294778,22.4947512 33.6602875,22.4815825 C33.371133,22.4265497 33.1358034,22.4401215 32.8630574,22.4173439 C32.2821165,22.356167 31.8009267,22.3064143 31.3733557,22.1710957 C31.1990227,22.1031295 31.0750017,21.894656 31.0146881,21.8088611 L30.6791057,21.7107187 C30.8530977,20.4456786 30.8061824,19.1291049 30.5051,17.8117894 C30.2012142,16.4822086 29.6641699,15.2661777 28.9479267,14.1947963 C29.0340091,14.1161516 29.1965739,13.9714793 29.242671,13.9289197 C29.256146,13.7790769 29.2445688,13.6219714 29.398921,13.4560518 C29.7257017,13.1476669 30.1377443,12.8919519 30.6347165,12.5834768 C30.8706068,12.4440064 31.0886676,12.3541031 31.3254125,12.1784164 C31.3789494,12.1386878 31.4520545,12.0757721 31.508296,12.0303106 C31.9068972,11.7107544 31.9986699,11.1596102 31.7124864,10.7990697 C31.4263028,10.4385293 30.8717409,10.4045685 30.4731398,10.7241246 C30.4164034,10.769283 30.3394165,10.8281924 30.2884807,10.8722304 C30.0653841,11.0651154 29.9276028,11.255629 29.7398301,11.4557315 C29.3300295,11.8740508 28.9913034,12.223042 28.6194466,12.4746279 C28.4583097,12.5689052 28.2222898,12.5362845 28.1151824,12.5299446 L27.7991313,12.7565642 C25.9969267,10.8573516 23.5431847,9.6431046 20.9010602,9.4072294 C20.8936705,9.29595549 20.8839892,9.09481999 20.881529,9.03428833 C20.7733636,8.93027025 20.6426983,8.84146616 20.609867,8.61673709 C20.573721,8.16770091 20.6340699,7.68458627 20.7039722,7.10177552 C20.7425574,6.82947444 20.8066642,6.6032693 20.8176085,6.30771439 C20.8200972,6.24052761 20.8161028,6.14303447 20.8158358,6.07038826 C20.8157813,5.55795852 20.4437881,5.14244978 19.9848699,5.1424966 L19.984867,5.1424966 Z M18.9443841,11.6198941 L18.6975801,16.0006134 L18.6798244,16.0095354 C18.663271,16.4014397 18.3423267,16.7143762 17.9482903,16.7143762 C17.7868807,16.7143762 17.637896,16.6622835 17.5168273,16.573408 L17.509725,16.5769768 L13.9355063,14.030628 C15.0340091,12.9450719 16.4390807,12.1428459 18.0583756,11.7733531 C18.3541705,11.705858 18.6498335,11.6557764 18.9443841,11.6198941 L18.9443841,11.6198941 Z M21.0271256,11.6198941 C22.9176636,11.8535698 24.6660466,12.7138824 26.0058188,14.0324124 L22.4546824,16.5627016 L22.4422534,16.5573512 C22.1270574,16.7887069 21.6829676,16.7313032 21.4372818,16.4217363 C21.3366386,16.2949172 21.2838318,16.1458019 21.2774807,15.995263 L21.2739295,15.9934814 L21.0271256,11.6198941 Z M12.6393415,15.6669293 L15.9028358,18.6004944 L15.8992847,18.6183385 C16.1938511,18.8756911 16.2372892,19.3222765 15.9916142,19.6318817 C15.8909778,19.7587059 15.7562688,19.8437687 15.6116426,19.8834831 L15.6080915,19.8977583 L11.4248528,21.1111551 C11.2119392,19.1545788 11.6707932,17.252631 12.6393415,15.6669293 L12.6393415,15.6669293 Z M27.3073102,15.6687108 C27.7922023,16.4585642 28.1593869,17.340751 28.3779778,18.2971424 C28.5939472,19.2420661 28.6481477,20.1853002 28.5590858,21.096877 L24.3545403,19.8799114 L24.3509892,19.8620673 C23.9744835,19.7586551 23.7430955,19.3737611 23.8307477,18.9877079 C23.8666585,18.8295597 23.950192,18.6957709 24.0633472,18.5969227 L24.0615744,18.5880007 L27.3073131,15.6687108 L27.3073102,15.6687108 Z M19.3154778,18.8271112 L20.6524807,18.8271112 L21.4834466,19.8709894 L21.1851511,21.1736065 L19.984867,21.7535388 L18.7810318,21.1718221 L18.4827364,19.8692049 L19.3154778,18.8271112 Z M23.6016994,22.3994941 C23.6585159,22.3966105 23.7150847,22.4017553 23.7703784,22.411985 L23.7774807,22.4030629 L28.1045403,23.1382386 C27.4712733,24.9262487 26.2594943,26.4752328 24.6404068,27.5118202 L22.9607193,23.4344502 L22.9660432,23.4273126 C22.8117472,23.0670057 22.9661568,22.6444826 23.3211568,22.4726548 C23.412046,22.4286636 23.5070028,22.4043043 23.6016966,22.3994941 L23.6016994,22.3994941 Z M16.3342989,22.4173382 C16.6645114,22.4219919 16.9606977,22.6523232 17.0374239,22.9901328 C17.0733437,23.1482787 17.0558614,23.3049736 16.9965858,23.4433722 L17.0090148,23.4594319 L15.347083,27.4957606 C13.793267,26.4937175 12.5556472,24.9933636 11.8936028,23.1525167 L16.1833756,22.4209099 L16.1904778,22.4298319 C16.2384614,22.4209578 16.2871256,22.4166758 16.3342989,22.417341 L16.3342989,22.4173382 Z M19.9582335,24.1856884 C20.0732591,24.1814401 20.189975,24.2051587 20.3009182,24.2588491 C20.4463449,24.3292278 20.5586869,24.4400415 20.6293983,24.5729047 L20.6453784,24.5729047 L22.7600801,28.4129487 C22.4856318,28.5054083 22.2034841,28.5844276 21.9149097,28.6502748 C20.2976068,29.019313 18.6854426,28.9074961 17.2256341,28.4075954 L19.3350091,24.5746891 L19.3385602,24.5746891 C19.4651324,24.3368971 19.7051778,24.1950318 19.9582335,24.1856884 L19.9582335,24.1856884 Z" stroke="#FFFFFF" stroke-width="0.25" fill="#FFFFFF"></path>
                <path d="M57.6,20 C57.9,19.6 58.2,19.3 58.6,18.8 C59,18.3 59.2,18 59.5,17.5 C59.8,17 60.1,16.6 60.4,16.2 C60.7,15.7 60.9,15.4 61.1,15 L65,15 C64.7,15.4 64.4,15.8 63.9,16.4 C63.5,16.9 63.1,17.4 62.6,17.8 C62.1,18.3 61.7,18.8 61.3,19.2 C60.8,19.7 60.5,20.1 60.1,20.5 C60.6,21 61,21.4 61.5,22 C62,22.6 62.5,23.2 63,23.8 C63.5,24.4 63.9,25.1 64.4,25.7 C64.9,26.3 65.1,26.9 65.4,27.4 L61.7,27.4 C61.5,26.9 61.2,26.5 60.9,26 C60.5,25.5 60.2,24.9 59.8,24.4 C59.4,23.9 59,23.3 58.6,22.9 C58.2,22.4 57.9,22 57.5,21.7 L57.5,27.6 L54.2,27.6 L54.2,9.8 L57.5,9.3 L57.6,20 L57.6,20 Z" fill="#FFFFFF"></path>
                <path d="M77.4,27 C76.8,27.2 76,27.3 75.2,27.5 C74.4,27.7 73.4,27.8 72.4,27.8 C71.4,27.8 70.6,27.6 69.9,27.3 C69.3,27 68.7,26.6 68.4,26.1 C68,25.6 67.8,25 67.6,24.3 C67.4,23.6 67.4,22.9 67.4,22 L67.4,15.1 L70.7,15.1 L70.7,21.6 C70.7,22.8 70.9,23.6 71.2,24.1 C71.5,24.6 72,24.9 72.8,24.9 C73.3,24.9 73.8,24.9 74.2,24.8 L74.2,15.1 L77.5,15.1 L77.5,27 L77.4,27 L77.4,27 Z" fill="#FFFFFF"></path>
                <path d="M88.1,21.3 C88.1,20.1 87.9,19.2 87.6,18.7 C87.2,18.1 86.6,17.8 85.9,17.8 C85.5,17.8 85.2,17.9 84.9,18 C84.5,18.1 84.3,18.2 84,18.4 L84,25 C84.3,25.1 84.5,25.1 84.8,25.1 L85.5,25.1 C86.3,25.1 87,24.8 87.5,24.3 C87.9,23.5 88.1,22.6 88.1,21.3 L88.1,21.3 L88.1,21.3 Z M91.4,21.3 C91.4,22.3 91.3,23.2 91,24 C90.7,24.8 90.4,25.4 89.8,26.1 C89.3,26.6 88.6,27.1 87.9,27.4 C87.2,27.7 86.4,27.9 85.4,27.9 C84.6,27.9 83.7,27.8 82.8,27.7 C81.9,27.6 81.2,27.4 80.6,27.2 L80.6,9.8 L83.9,9.3 L83.9,15.4 C84.4,15.2 84.8,15 85.3,14.9 C85.8,14.8 86.1,14.8 86.6,14.8 C87.4,14.8 88.1,15 88.8,15.3 C89.4,15.6 89.9,16 90.3,16.7 C90.8,17.2 91,18 91.2,18.8 C91.3,19.5 91.4,20.4 91.4,21.3 L91.4,21.3 Z" fill="#FFFFFF"></path>
                <path d="M93,21.4 C93,20.3 93.2,19.3 93.5,18.5 C93.9,17.7 94.3,17 94.9,16.4 C95.4,15.9 96.1,15.4 96.8,15.1 C97.5,14.8 98.2,14.6 99,14.6 C100.8,14.6 102.3,15.1 103.2,16.2 C104.1,17.3 104.6,18.8 104.6,20.9 L104.6,21.5 L104.6,22 L96.6,22 C96.6,22.8 97,23.4 97.6,23.9 C98.2,24.4 99.1,24.6 100.2,24.6 C100.8,24.6 101.5,24.5 102.1,24.4 C102.7,24.2 103.2,24.1 103.5,23.9 L104,27 C103.5,27.2 102.8,27.4 102.2,27.5 C101.6,27.6 100.8,27.7 100,27.7 C98.9,27.7 98,27.5 97.2,27.2 C96.4,26.9 95.7,26.6 95,26 C94.5,25.5 94,24.8 93.6,24 C93.1,23.3 93,22.4 93,21.4 L93,21.4 L93,21.4 Z M101.3,20.1 C101.3,19.7 101.3,19.5 101.2,19.1 C101.1,18.8 100.9,18.6 100.7,18.3 C100.5,18 100.3,17.8 100,17.6 C99.7,17.4 99.4,17.4 98.9,17.4 C98.4,17.4 98.1,17.5 97.8,17.6 C97.5,17.8 97.3,18 97.1,18.1 C96.9,18.4 96.7,18.6 96.6,18.9 C96.5,19.2 96.4,19.5 96.4,19.9 L101.3,20.1 L101.3,20.1 Z" fill="#FFFFFF"></path>
                <path d="M116.8,18.4 C116.6,18.3 116.3,18.3 116.1,18.2 C115.8,18.1 115.5,18.1 115.2,18 C114.9,18 114.7,17.9 114.3,17.9 L113.6,17.9 C113.1,17.9 112.7,17.9 112.2,18 C111.7,18 111.3,18.1 110.8,18.3 L110.8,27.5 L107.5,27.5 L107.5,15.9 C108.4,15.6 109.2,15.4 110.1,15.2 C111,15 112.1,14.9 113.3,14.9 L114,14.9 C114.4,14.9 114.6,15 115,15 C115.4,15 115.7,15.1 116.1,15.2 C116.5,15.3 116.8,15.4 117.1,15.5 L116.8,18.4 L116.8,18.4 Z" fill="#FFFFFF"></path>
                <path d="M120.1,15.5 C120.7,15.3 121.4,15.2 122.3,15 C123.1,14.8 124.1,14.8 125.1,14.8 C126.1,14.8 126.9,15 127.5,15.3 C128.1,15.6 128.7,15.9 129,16.5 C129.4,17 129.7,17.6 129.9,18.3 C130.1,19 130.2,19.7 130.2,20.6 L130.2,27.6 L126.9,27.6 L126.9,21 C126.9,19.8 126.8,19 126.5,18.5 C126.3,17.9 125.7,17.7 124.9,17.7 L124.2,17.7 C124,17.7 123.7,17.7 123.5,17.8 L123.5,27.5 L120.2,27.5 L120.1,15.5 L120.1,15.5 Z" fill="#FFFFFF"></path>
                <path d="M132.4,21.4 C132.4,20.3 132.6,19.3 132.9,18.5 C133.3,17.7 133.7,17 134.3,16.4 C134.8,15.9 135.5,15.4 136.2,15.1 C136.9,14.8 137.6,14.6 138.4,14.6 C140.2,14.6 141.7,15.1 142.6,16.2 C143.4,17.5 144,19 144,21.1 L144,21.7 L144,22.2 L136,22.2 C136,23 136.4,23.6 137,24.1 C137.6,24.6 138.5,24.8 139.6,24.8 C140.2,24.8 140.9,24.7 141.5,24.6 C142.1,24.4 142.6,24.3 142.9,24.1 L143.4,26.9 C142.9,27.1 142.2,27.3 141.6,27.4 C141,27.5 140.2,27.6 139.4,27.6 C138.3,27.6 137.4,27.4 136.6,27.1 C135.8,26.8 135.1,26.5 134.4,25.9 C133.9,25.4 133.4,24.7 133,23.9 C132.6,23.3 132.4,22.4 132.4,21.4 L132.4,21.4 L132.4,21.4 Z M140.7,20.1 C140.7,19.7 140.7,19.5 140.6,19.1 C140.5,18.8 140.3,18.6 140.1,18.3 C140,18 139.7,17.8 139.5,17.6 C139.2,17.4 138.9,17.4 138.4,17.4 C137.9,17.4 137.6,17.5 137.3,17.6 C137,17.8 136.8,18 136.6,18.2 C136.4,18.5 136.2,18.7 136.1,19 C136,19.3 135.9,19.6 135.9,20 L140.7,20.1 L140.7,20.1 Z" fill="#FFFFFF"></path>
                <path d="M148.5,17.8 L145.7,17.8 L145.7,15.1 L148.5,15.1 L148.5,12 L151.8,11.5 L151.8,15.1 L156.9,15.1 L156.9,17.8 L151.8,17.8 L151.8,22.8 C151.8,23.3 151.8,23.6 151.9,23.9 C152,24.2 152.1,24.4 152.3,24.5 C152.5,24.7 152.7,24.8 152.8,24.8 C153.1,24.9 153.3,24.9 153.5,24.9 L154.3,24.9 C154.6,24.9 154.8,24.8 155,24.8 C155.3,24.8 155.5,24.7 155.7,24.6 C156,24.5 156.2,24.4 156.5,24.2 L157,27 C156.4,27.3 155.7,27.5 155.1,27.5 C154.4,27.6 153.7,27.7 153.1,27.7 C152.4,27.7 151.7,27.6 151.1,27.5 C150.6,27.4 150,27.1 149.7,26.8 C149.3,26.4 149,26 148.8,25.4 C148.6,24.8 148.5,24 148.5,22.9 L148.5,17.8 L148.5,17.8 L148.5,17.8 Z" fill="#FFFFFF"></path>
                <path d="M158.7,21.4 C158.7,20.3 158.9,19.3 159.2,18.5 C159.6,17.7 160,17 160.6,16.4 C161.1,15.9 161.8,15.4 162.5,15.1 C163.2,14.8 163.9,14.6 164.7,14.6 C166.5,14.6 168,15.1 168.9,16.2 C169.8,17.3 170.3,18.8 170.3,20.9 L170.3,21.5 L170.3,22 L162.3,22 C162.3,22.8 162.7,23.4 163.3,23.9 C163.9,24.4 164.8,24.6 165.9,24.6 C166.5,24.6 167.2,24.5 167.8,24.4 C168.4,24.2 168.9,24.1 169.2,23.9 L169.7,26.7 C169.2,26.9 168.5,27.1 167.9,27.2 C167.3,27.3 166.5,27.4 165.7,27.4 C164.6,27.4 163.7,27.2 162.9,26.9 C162.1,26.6 161.4,26.3 160.7,25.7 C160.2,25.2 159.7,24.5 159.3,23.7 C158.9,23.3 158.7,22.4 158.7,21.4 L158.7,21.4 L158.7,21.4 Z M167,20.1 C167,19.7 167,19.5 166.9,19.1 C166.8,18.8 166.6,18.6 166.4,18.3 C166.3,18 166,17.8 165.8,17.6 C165.5,17.4 165.2,17.4 164.7,17.4 C164.2,17.4 163.9,17.5 163.6,17.6 C163.3,17.8 163,18 162.9,18.2 C162.7,18.5 162.5,18.7 162.4,19 C162.3,19.3 162.2,19.6 162.2,20 L167,20.1 L167,20.1 Z" fill="#FFFFFF"></path>
                <path d="M177,25.1 C177.8,25.1 178.4,25 178.8,24.9 C179.2,24.8 179.4,24.5 179.4,24.2 C179.4,23.9 179.3,23.7 179.2,23.7 C179.1,23.5 178.9,23.4 178.7,23.2 C178.4,23.1 178.2,23 177.9,22.8 C177.6,22.7 177.3,22.6 176.9,22.5 C176.4,22.3 175.9,22.2 175.5,22 C175,21.8 174.6,21.5 174.1,21.3 C173.7,21 173.4,20.7 173.1,20.2 C172.8,19.7 172.7,19.2 172.7,18.6 C172.7,18.1 172.8,17.6 173,17.2 C173.2,16.8 173.5,16.3 173.9,15.9 C174.3,15.5 174.9,15.3 175.5,15.1 C176.2,14.9 177,14.8 178,14.8 C178.8,14.8 179.5,14.9 180.3,15 C181,15.1 181.6,15.3 182.1,15.5 L181.6,18.2 C181.3,18.1 180.9,17.9 180.2,17.7 C179.6,17.5 178.8,17.4 178,17.4 C177.2,17.4 176.6,17.5 176.4,17.7 C176.1,17.9 175.9,18.2 175.9,18.3 C175.9,18.4 176,18.8 176.1,19 C176.2,19.2 176.4,19.3 176.6,19.5 C176.8,19.6 177.1,19.8 177.3,19.9 C177.6,19.9 178,20 178.2,20.2 C178.7,20.4 179.2,20.6 179.6,20.7 C180.1,20.9 180.6,21.2 181,21.4 C181.5,21.7 181.7,22 182,22.5 C182.3,23 182.4,23.5 182.4,24.1 C182.4,24.6 182.3,25.1 182.1,25.5 C181.9,26 181.6,26.3 181.1,26.7 C180.6,27.1 180.1,27.3 179.4,27.5 C178.7,27.7 177.8,27.8 176.8,27.8 C175.7,27.8 174.8,27.7 174.1,27.4 C173.4,27.1 172.7,26.9 172.3,26.8 L172.8,24.1 C173.4,24.4 174.1,24.6 174.8,24.8 C175.6,25 176.3,25.1 177,25.1" fill="#FFFFFF"></path>
            </g>
        </g>
    </g>
</svg>