<svg viewBox="0 0 145 32" xmlns="http://www.w3.org/2000/svg"><path fill="#FFF" d="M140.598 20.783c-.56 0-1.12-.074-1.678-.257-.56-.148-1.082-.33-1.567-.515l-.41 2.097c.373.147.82.33 1.417.514.597.185 1.305.296 2.163.296.82 0 1.53-.074 2.09-.22.56-.148 1.043-.37 1.38-.626.335-.257.596-.552.745-.92.15-.367.224-.735.224-1.14 0-.514-.112-.92-.298-1.286-.224-.33-.485-.625-.784-.846-.335-.22-.67-.405-1.08-.552-.412-.147-.785-.294-1.158-.404-.26-.074-.522-.184-.746-.257-.223-.074-.447-.184-.596-.295-.187-.11-.3-.183-.41-.33-.112-.11-.15-.258-.15-.405 0-.184.112-.33.336-.515.224-.147.67-.22 1.305-.22.635 0 1.195.073 1.68.22.485.147.858.258 1.12.33l.41-2.132c-.41-.184-.86-.33-1.418-.404-.56-.11-1.157-.147-1.79-.147-.747 0-1.38.073-1.903.22-.523.147-.97.368-1.306.662-.336.293-.597.588-.746.955-.15.368-.224.736-.224 1.14 0 .515.112.92.298 1.25.224.33.485.626.783.846.336.222.672.406 1.045.553.373.147.783.257 1.156.367.26.074.522.148.746.258.224.073.448.184.634.257.187.074.336.184.448.33.112.112.15.26.15.442 0 .258-.15.442-.486.552-.298.146-.783.183-1.38.183zm-7.945-3.824h-3.916c.037-.26.075-.516.186-.773.075-.258.224-.48.373-.662.15-.184.373-.33.597-.442.224-.11.522-.147.858-.147.337 0 .635.074.86.184.223.11.446.258.596.478.15.184.26.405.335.662.076.184.113.44.113.7zm-6.564.992c0 .808.11 1.544.372 2.132.26.625.597 1.14 1.08 1.545.45.403 1.008.734 1.68.955.67.22 1.417.33 2.238.33.634 0 1.193-.036 1.678-.146.485-.112.97-.222 1.418-.37l-.336-2.132c-.336.11-.71.22-1.156.33-.448.11-.97.148-1.455.148-.822 0-1.493-.184-2.053-.55-.522-.37-.783-.847-.783-1.472h6.34c0-.11.038-.258.038-.44v-.516c0-1.618-.373-2.832-1.12-3.677-.745-.845-1.826-1.25-3.28-1.25-.598 0-1.157.11-1.717.33-.56.222-1.044.553-1.492.957-.447.442-.783.956-1.044 1.618-.262.625-.41 1.36-.41 2.207zm-8.058-2.795v3.97c0 .81.075 1.472.26 1.95.15.515.41.883.747 1.14.335.258.708.44 1.155.552.448.11.97.146 1.567.146.522 0 1.044-.037 1.604-.11.56-.074 1.044-.22 1.53-.405l-.337-2.17c-.224.112-.448.185-.672.26-.187.072-.41.11-.597.146-.185.037-.372.073-.595.073-.187 0-.41.036-.672.036-.224 0-.41-.037-.597-.073-.186-.037-.335-.11-.447-.258-.113-.11-.225-.294-.3-.515-.074-.22-.112-.514-.112-.845v-3.898h4.103V13.06h-4.102v-2.83l-2.573.404v2.427h-2.238v2.097h2.275zm-10.07 1.802c.037-.26.074-.516.186-.773.074-.258.224-.48.373-.662.15-.184.374-.33.598-.442.26-.11.522-.147.858-.147.335 0 .634.074.857.184.224.11.448.258.597.478.15.184.26.405.336.662.074.22.112.478.112.736h-3.917v-.037zm-2.65.992c0 .808.113 1.544.374 2.132.26.625.597 1.14 1.082 1.545.447.403 1.007.734 1.678.955.672.22 1.418.33 2.238.33.634 0 1.194-.036 1.68-.146.484-.112.968-.222 1.416-.37l-.336-2.132c-.335.11-.708.22-1.156.33-.448.11-.97.148-1.455.148-.82 0-1.492-.184-2.05-.55-.523-.37-.784-.847-.784-1.472h6.34c0-.11.037-.258.037-.44v-.516c0-1.618-.373-2.832-1.12-3.677-.745-.845-1.827-1.25-3.28-1.25-.598 0-1.158.11-1.717.33-.56.222-1.045.553-1.492.957-.448.442-.784.956-1.045 1.618-.26.625-.41 1.36-.41 2.207zm-9.697 4.743h2.574V15.12c.223-.037.41-.037.596-.073.186 0 .373-.037.56-.037.633 0 1.044.184 1.268.588.223.405.298 1.03.298 1.95v5.11h2.574v-5.442c0-.662-.075-1.25-.187-1.802-.113-.55-.337-.993-.635-1.397s-.71-.7-1.23-.92c-.523-.22-1.157-.33-1.94-.33-.784 0-1.53.037-2.2.147-.673.11-1.232.22-1.68.33v9.45zm-2.648-7.06l.448-2.353c-.224-.074-.485-.148-.784-.184l-.894-.11c-.298-.037-.56-.074-.82-.074-.262 0-.448-.037-.597-.037-.97 0-1.79.074-2.5.22-.71.148-1.417.332-2.09.59v9.008h2.575V15.56c.373-.11.71-.146 1.044-.182.335-.037.708-.037 1.043-.037.15 0 .336 0 .56.038.224 0 .448.036.67.073.225.038.486.075.71.11.298 0 .485.038.634.075zm-12.27 1.324h-3.918c.037-.26.074-.516.186-.773.074-.258.224-.48.373-.662.148-.184.372-.33.596-.442.223-.11.522-.147.858-.147.335 0 .634.074.857.184.225.11.45.258.598.478.15.184.26.405.336.662.075.184.112.44.112.7zm-6.528.992c0 .808.11 1.544.37 2.132.263.625.598 1.14 1.083 1.545.448.403 1.007.734 1.678.955.673.22 1.42.33 2.24.33.634 0 1.193-.036 1.678-.146.485-.112.97-.222 1.417-.37L82.3 20.27c-.336.11-.71.22-1.157.33-.447.11-.97.148-1.454.148-.822 0-1.493-.184-2.053-.55-.522-.37-.783-.847-.783-1.472h6.34c0-.11.038-.258.038-.44v-.516c0-1.618-.373-2.832-1.12-3.677-.745-.845-1.826-1.25-3.28-1.25-.598 0-1.157.11-1.717.33-.56.222-1.044.553-1.492.957-.447.442-.783.956-1.044 1.618-.3.625-.41 1.36-.41 2.207zm-1.27-.074c0-.735-.074-1.434-.26-2.06-.15-.624-.41-1.14-.747-1.58-.335-.442-.746-.773-1.23-1.03-.485-.22-1.045-.368-1.68-.368-.335 0-.67.037-1.006.11-.336.074-.672.184-1.044.332V8.465l-2.574.44v13.496c.484.148 1.043.258 1.752.37.708.11 1.38.146 2.05.146.747 0 1.42-.11 1.978-.368.597-.22 1.082-.588 1.492-1.03.41-.44.71-.956.933-1.58.223-.59.335-1.288.335-2.06zm-2.61-.074c0 1.067-.187 1.802-.597 2.28-.41.478-.933.662-1.567.662-.15 0-.336 0-.56-.037-.223 0-.41-.037-.596-.074v-5.222c.186-.11.41-.184.708-.294.26-.073.56-.11.82-.11.598 0 1.083.257 1.344.735.298.478.447 1.177.447 2.06zm-8.468 4.56V13.06H59.25v7.576c-.374.073-.784.11-1.157.11-.634 0-1.045-.22-1.27-.662-.222-.44-.334-1.103-.334-1.985v-5.04h-2.575v5.37c0 .66.037 1.25.15 1.8.11.553.298 1.03.596 1.435.3.405.71.7 1.232.92.522.22 1.156.33 1.977.33.782 0 1.528-.073 2.2-.183.708-.11 1.305-.257 1.752-.368zm-15.59-5.48c.26-.293.484-.587.746-.918.26-.33.522-.662.745-.993.224-.33.485-.662.71-.993.223-.33.41-.625.596-.92h3.057c-.26.332-.522.663-.857 1.03-.336.368-.635.736-.97 1.14l-1.007 1.104c-.336.367-.634.698-.933.992.336.33.71.736 1.12 1.177.41.44.782.92 1.193 1.434.373.478.746.993 1.08 1.47.337.48.598.92.785 1.325H49.55c-.148-.33-.372-.736-.67-1.14-.26-.44-.56-.846-.858-1.287-.3-.405-.597-.81-.933-1.177-.3-.367-.597-.698-.86-.92v4.56H43.66V8.98l2.573-.44v8.347zM23.394 30.394h-11.75c-.52 0-1.02-.236-1.333-.638L2.983 20.69c-.323-.41-.447-.943-.34-1.455L5.258 7.918c.125-.52.46-.94.923-1.153L16.76 1.73c.243-.094.524-.148.77-.148.25 0 .504.056.728.16L28.85 6.76c.48.24.826.668.93 1.153l2.618 11.324c.125.51.003 1.037-.338 1.448l-7.334 9.07c-.312.4-.81.636-1.332.636M33.91 18.912l-2.617-11.32c-.23-.983-.884-1.795-1.798-2.227L18.938.32C18.05-.1 17.06-.113 16.1.32L5.503 5.363c-.914.433-1.57 1.244-1.8 2.227L1.087 18.913c-.23.983.005 2.003.645 2.8l7.33 9.068c.62.775 1.552 1.22 2.563 1.22h11.75c1.012 0 1.945-.445 2.562-1.218l7.33-9.067c.645-.78.88-1.802.646-2.803"/><path fill="#FFF" d="M23.083 20.095c-.524.838-1.215 1.508-2.01 2.032l-1.32-3.163c-.063-.25.042-.524.293-.65.084-.04.188-.062.293-.062l3.35.565c-.125.46-.335.88-.607 1.278zM19 23.005c-.483.106-.965.17-1.468.17-.733 0-1.446-.127-2.116-.336l1.655-2.996c.168-.19.44-.273.672-.147.105.063.19.147.25.23l1.614 2.912c-.188.062-.398.103-.607.166zM11.35 18.84l3.33-.565c.273-.02.525.167.588.44.02.125.02.23-.02.335l-1.28 3.08c-1.172-.755-2.114-1.907-2.618-3.29zm.566-5.676l2.493 2.22c.23.19.252.545.064.775-.063.084-.147.147-.252.168l-3.247.942c-.126-1.424.188-2.87.943-4.105zm4.127-2.974c.23-.042.44-.084.67-.126l-.19 3.352c-.02.293-.25.544-.564.544-.083 0-.188-.02-.25-.063l-2.786-1.99c.858-.858 1.927-1.445 3.12-1.717zm6.075 1.718l-2.744 1.947c-.23.147-.545.105-.733-.125-.063-.063-.084-.147-.105-.23l-.19-3.415c1.447.168 2.766.817 3.772 1.823zm1.802 3.246c.167.712.21 1.424.146 2.115l-3.205-.92c-.293-.085-.46-.378-.398-.67.02-.085.063-.17.126-.232l2.535-2.283c.356.587.628 1.257.797 1.99zm-5.468 2.178l-.922.44-.922-.44-.23-.984.628-.796h1.027l.63.796-.21.984zm9.7 1.027c-.022 0-.022 0 0 0h-.022c-.02 0-.042 0-.042-.02-.042 0-.084-.022-.126-.022-.146-.02-.272-.042-.398-.042-.063 0-.125 0-.21-.02h-.02c-.44-.043-.796-.085-1.13-.19-.148-.062-.19-.146-.232-.23 0-.02-.02-.02-.02-.042l-.273-.083c.127-.963.085-1.97-.145-2.953-.23-.984-.63-1.906-1.173-2.744l.21-.188v-.042c0-.105.02-.21.104-.314.25-.23.565-.42.942-.65.063-.04.126-.062.19-.104.124-.063.23-.126.355-.21.02-.02.063-.042.105-.084.02-.02.04-.02.04-.04.295-.253.358-.672.148-.944-.105-.147-.293-.23-.482-.23-.167 0-.314.063-.46.167l-.042.043c-.042.02-.063.063-.105.084-.105.105-.19.188-.272.293-.042.042-.084.105-.147.147-.293.314-.565.565-.838.754-.063.043-.125.064-.188.064-.042 0-.085 0-.127-.02h-.042l-.25.166c-.273-.293-.567-.544-.86-.796-1.257-.984-2.786-1.592-4.377-1.738l-.02-.272c-.022-.02-.022-.02-.043-.042-.063-.063-.147-.126-.168-.273-.02-.336.02-.713.063-1.132v-.02c0-.063.02-.147.042-.21.02-.126.042-.25.063-.398v-.188c0-.377-.293-.692-.65-.692-.168 0-.336.084-.46.21-.127.125-.19.293-.19.482V6c0 .146.02.27.063.397.02.063.02.126.042.21v.02c.042.42.105.796.063 1.13-.02.148-.104.21-.167.274-.02.022-.02.022-.042.043l-.02.272c-.377.042-.754.084-1.13.167-1.613.357-3.038 1.173-4.15 2.346l-.208-.146h-.042c-.042 0-.084.02-.126.02-.063 0-.125-.02-.188-.062-.272-.19-.545-.46-.838-.775-.042-.042-.084-.105-.147-.147-.082-.104-.166-.188-.27-.293-.022-.02-.064-.042-.106-.084-.02-.02-.042-.02-.042-.04-.125-.105-.293-.168-.46-.168-.19 0-.377.084-.482.23-.21.272-.147.69.147.943.02 0 .02.02.04.02.043.022.064.063.106.084.126.083.23.146.356.21.062.02.125.062.188.104.377.23.69.418.942.65.105.104.105.208.105.313v.042l.21.187c-.042.063-.084.105-.105.168-1.048 1.655-1.445 3.603-1.173 5.53l-.272.083c0 .02-.02.02-.02.042-.043.084-.106.168-.232.23-.314.105-.69.147-1.13.19H7.79c-.062 0-.145 0-.208.02-.126 0-.252.02-.398.042-.042 0-.084.02-.126.02-.02 0-.042 0-.063.022-.377.084-.607.44-.544.775.064.292.336.48.67.48.064 0 .106 0 .17-.02.02 0 .04 0 .04-.02.042 0 .084-.022.126-.022.147-.042.25-.084.377-.147.063-.02.126-.062.19-.083h.02c.398-.146.754-.272 1.09-.314h.04c.126 0 .21.063.273.105.02 0 .02.02.042.02l.293-.04c.504 1.55 1.467 2.93 2.746 3.936.293.23.586.42.9.608l-.125.272c0 .02.022.02.022.042.042.084.083.19.042.335-.126.315-.315.63-.545.986v.02c-.043.063-.085.105-.127.168-.083.105-.146.21-.23.335-.02.02-.042.062-.063.104 0 .02-.02.042-.02.042-.168.357-.043.755.27.9.085.043.17.064.253.064.25 0 .502-.167.628-.398 0-.02.022-.042.022-.042.02-.04.042-.083.063-.104.063-.147.084-.252.126-.378.022-.063.042-.126.063-.19.147-.418.252-.753.44-1.046.084-.126.19-.147.273-.19.02 0 .02 0 .04-.02l.148-.272c.922.356 1.927.545 2.932.545.61 0 1.237-.063 1.824-.21.377-.083.733-.188 1.09-.314l.124.232c.02 0 .02 0 .042.02.105.02.19.063.272.19.168.292.294.648.44 1.046v.02c.02.064.042.127.063.19.043.126.064.252.127.378.02.042.042.062.063.104 0 .02.02.042.02.042.126.252.378.398.63.398.083 0 .167-.02.25-.063.147-.083.273-.21.314-.377.042-.167.042-.356-.04-.524 0-.02-.022-.02-.022-.042-.02-.042-.042-.084-.063-.105-.064-.127-.148-.23-.232-.336-.04-.063-.083-.105-.125-.168v-.02c-.23-.357-.44-.67-.545-.985-.042-.145 0-.23.02-.334 0-.02.022-.02.022-.042l-.105-.25c1.11-.65 2.054-1.572 2.766-2.703.378-.586.67-1.235.88-1.884l.252.042c.02 0 .02-.02.042-.02.084-.043.147-.106.272-.106h.042c.335.042.69.168 1.09.314h.02c.063.02.126.063.19.084.124.063.23.105.376.147.042 0 .084.02.125.02.02 0 .04 0 .062.022.063.02.105.02.168.02.314 0 .586-.21.67-.482 0-.252-.23-.587-.607-.69z"/></svg>